<?xml version="1.0" encoding="UTF-8" standalone="no"?><!DOCTYPE svg PUBLIC "-//W3C//DTD SVG 1.1//EN" "http://www.w3.org/Graphics/SVG/1.1/DTD/svg11.dtd">

<svg width="100%" height="100%" viewBox="0 0 98 18" version="1.1" xmlns="http://www.w3.org/2000/svg" xmlns:xlink="http://www.w3.org/1999/xlink" xml:space="preserve" xmlns:serif="http://www.serif.com/" style="fill-rule:evenodd;clip-rule:evenodd;stroke-linejoin:round;stroke-miterlimit:2;">

<path d="M9.291,0l2.182,6.766l7.11,-0.015l-5.761,4.166l2.212,6.756l-5.743,-4.191l-5.742,4.191l2.212,-6.756l-5.761,-4.166l7.109,0.015l2.182,-6.766Z" style="fill:url(#_Linear1);"/>
<path d="M29.085,0l2.182,6.766l7.109,-0.015l-5.761,4.166l2.212,6.756l-5.742,-4.191l-5.743,4.191l2.212,-6.756l-5.761,-4.166l7.11,0.015l2.182,-6.766Z" style="fill:url(#_Linear2);"/>
<path d="M48.878,0l2.182,6.766l7.109,-0.015l-5.76,4.166l2.211,6.756l-5.742,-4.191l-5.742,4.191l2.211,-6.756l-5.76,-4.166l7.109,0.015l2.182,-6.766Z" style="fill:url(#_Linear3);"/>
<path d="M68.671,0l2.182,6.766l7.11,-0.015l-5.761,4.166l2.212,6.756l-5.743,-4.191l-5.742,4.191l2.212,-6.756l-5.761,-4.166l7.109,0.015l2.182,-6.766Z" style="fill:url(#_Linear4);"/>
<path d="M88.465,0l2.182,6.766l7.109,-0.015l-5.761,4.166l2.212,6.756l-5.742,-4.191l-5.743,4.191l2.212,-6.756l-5.761,-4.166l7.109,0.015l2.183,-6.766Z" style="fill:url(#_Linear5);"/>
<defs>
<linearGradient id="_Linear1" x1="0" y1="0" x2="1" y2="0" gradientUnits="userSpaceOnUse" gradientTransform="matrix(100,0,0,28,-1.12203,9.83661)">
<stop offset="0" style="stop-color:#5b0098;stop-opacity:1"/>
<stop offset="0.75" style="stop-color:#7124a5;stop-opacity:1"/>
<stop offset="0.75" style="stop-color:#fff;stop-opacity:1"/>
<stop offset="1" style="stop-color:#ebebeb;stop-opacity:1"/>
</linearGradient>
<linearGradient id="_Linear2" x1="0" y1="0" x2="1" y2="0" gradientUnits="userSpaceOnUse" gradientTransform="matrix(100,0,0,28,-1.12203,9.83661)">
<stop offset="0" style="stop-color:#5b0098;stop-opacity:1"/>
<stop offset="0.75" style="stop-color:#7124a5;stop-opacity:1"/>
<stop offset="0.75" style="stop-color:#fff;stop-opacity:1"/>
<stop offset="1" style="stop-color:#ebebeb;stop-opacity:1"/>
</linearGradient>
<linearGradient id="_Linear3" x1="0" y1="0" x2="1" y2="0" gradientUnits="userSpaceOnUse" gradientTransform="matrix(100,0,0,28,-1.12203,9.83661)">
<stop offset="0" style="stop-color:#5b0098;stop-opacity:1"/>
<stop offset="0.75" style="stop-color:#7124a5;stop-opacity:1"/>
<stop offset="0.75" style="stop-color:#fff;stop-opacity:1"/>
<stop offset="1" style="stop-color:#ebebeb;stop-opacity:1"/>
</linearGradient>
<linearGradient id="_Linear4" x1="0" y1="0" x2="1" y2="0" gradientUnits="userSpaceOnUse" gradientTransform="matrix(100,0,0,28,-1.12203,9.83661)">
<stop offset="0" style="stop-color:#5b0098;stop-opacity:1"/><stop offset="0.75" style="stop-color:#7124a5;stop-opacity:1"/>
<stop offset="0.75" style="stop-color:#fff;stop-opacity:1"/>
<stop offset="1" style="stop-color:#ebebeb;stop-opacity:1"/>
</linearGradient>
<linearGradient id="_Linear5" x1="0" y1="0" x2="1" y2="0" gradientUnits="userSpaceOnUse" gradientTransform="matrix(100,0,0,28,-1.12203,9.83661)">
<stop offset="0" style="stop-color:#5b0098;stop-opacity:1"/>
<stop offset="0.75" style="stop-color:#7124a5;stop-opacity:1"/>
<stop offset="0.75" style="stop-color:#fff;stop-opacity:1"/>
<stop offset="1" style="stop-color:#ebebeb;stop-opacity:1"/>
</linearGradient>
</defs>
</svg>